<?xml version="1.0" encoding="utf-8"?>
<!-- Generator: Adobe Illustrator 25.2.0, SVG Export Plug-In . SVG Version: 6.00 Build 0)  -->
<svg version="1.1" id="katman_1" xmlns="http://www.w3.org/2000/svg" xmlns:xlink="http://www.w3.org/1999/xlink" x="0px" y="0px"
	 viewBox="0 0 560 400" style="enable-background:new 0 0 560 400;" xml:space="preserve">
<style type="text/css">
	.st0{fill:#F3BA2F;}
</style>
<g transform="matrix(.710844 0 0 .710844 55.0018 155)">
	<path class="st0" d="M38.72,73.41L63.31,98l24.6-24.6l14.31,14.29l-0.01,0.01l-38.9,38.91l-38.9-38.89l-0.02-0.02L38.72,73.41z
		 M77.82,63.3h0.01H77.82L63.31,77.83L48.8,63.33l-0.02-0.03l2.56-2.56l1.24-1.23l10.73-10.73L77.82,63.3z M97.99,63.31l14.31-14.31
		l14.3,14.31l-14.3,14.3L97.99,63.31z M-0.01,63.31L14.3,49l14.3,14.31l-14.3,14.3L-0.01,63.31z M38.72,53.2l24.59-24.58l24.6,24.6
		l14.3-14.31L63.31,0l-38.9,38.9L38.72,53.2z"/>
	<g transform="translate(.55)">
		<path class="st0" d="M148.37,30.68h31.12c7.72,0,13.56,2,17.52,6c3.01,2.99,4.67,7.08,4.59,11.32v0.19
			c0.03,1.72-0.21,3.43-0.71,5.08c-0.44,1.42-1.09,2.76-1.91,4c-0.77,1.17-1.7,2.22-2.76,3.12c-1.04,0.89-2.18,1.67-3.39,2.3
			c3.5,1.22,6.65,3.28,9.17,6c2.23,2.53,3.34,6.03,3.34,10.5v0.19c0.06,2.79-0.54,5.55-1.77,8.06c-1.19,2.31-2.93,4.29-5.07,5.76
			c-2.42,1.62-5.11,2.79-7.95,3.45c-3.37,0.8-6.83,1.18-10.29,1.15h-31.89L148.37,30.68z M176.37,57.82
			c2.69,0.13,5.37-0.45,7.77-1.68c1.9-1.11,3.02-3.22,2.86-5.42v-0.19c0.1-2.02-0.84-3.96-2.49-5.13c-1.66-1.18-4.06-1.77-7.19-1.77
			h-14.56v14.19H176.37z M180.3,84.87c2.68,0.15,5.35-0.46,7.7-1.77c1.86-1.19,2.93-3.31,2.78-5.52v-0.19
			c0.07-2.09-0.9-4.09-2.59-5.32c-1.72-1.33-4.5-2-8.34-2h-17.09v14.8L180.3,84.87z"/>
		<path class="st0" d="M223.88,30.68h14.77v67.14h-14.77V30.68z"/>
		<path class="st0" d="M261,30.68h13.62L306.1,72V30.68h14.58v67.14h-12.57L275.6,55.14v42.68H261L261,30.68z"/>
		<path class="st0" d="M365.4,30.2H379l28.77,67.62h-15.42l-6.14-15.06h-28.39l-6.14,15.06h-15.06L365.4,30.2z M380.94,69.72
			L372,47.94l-8.9,21.78H380.94z"/>
		<path class="st0" d="M423.74,30.68h13.62L468.82,72V30.68h14.58v67.14h-12.57l-32.51-42.68v42.68h-14.58L423.74,30.68z"/>
		<path class="st0" d="M536.56,99c-4.71,0.04-9.37-0.87-13.72-2.68c-8.26-3.41-14.8-10.02-18.13-18.32
			c-1.74-4.3-2.62-8.89-2.59-13.53v-0.19c-0.08-9.13,3.44-17.94,9.79-24.51c3.12-3.21,6.87-5.75,11-7.48
			c4.5-1.86,9.32-2.79,14.19-2.73c2.88-0.02,5.75,0.24,8.58,0.77c2.42,0.46,4.79,1.17,7.06,2.11c2.06,0.87,4.03,1.96,5.85,3.26
			c1.78,1.27,3.45,2.68,5,4.22l-9.39,10.84c-2.4-2.21-5.09-4.09-8-5.57c-2.86-1.37-5.99-2.05-9.16-2c-5.33-0.06-10.43,2.18-14,6.14
			c-1.75,1.95-3.12,4.22-4.04,6.67c-0.96,2.59-1.45,5.34-1.43,8.11v0.19c-0.01,2.76,0.47,5.51,1.43,8.1c0.91,2.46,2.27,4.74,4,6.71
			c3.54,4.01,8.65,6.29,14,6.24c3.37,0.11,6.71-0.62,9.73-2.11c2.88-1.57,5.53-3.5,7.91-5.76l9.4,9.5c-1.66,1.8-3.46,3.47-5.37,5
			c-1.88,1.49-3.92,2.76-6.09,3.79c-2.31,1.09-4.74,1.89-7.24,2.39C542.45,98.74,539.51,99.02,536.56,99z"/>
		<path class="st0" d="M581.47,30.68H632v13.14h-36v13.62h31.7v13.14h-31.65v14.1h36.45v13.14h-51L581.47,30.68z"/>
	</g>
</g>
</svg>
